<?xml version="1.0" encoding="iso-8859-1"?>
<!-- Generator: Adobe Illustrator 19.0.0, SVG Export Plug-In . SVG Version: 6.00 Build 0)  -->
<svg version="1.1" id="Capa_1" xmlns="http://www.w3.org/2000/svg" xmlns:xlink="http://www.w3.org/1999/xlink" x="0px" y="0px"
	 viewBox="0 0 56 56" style="enable-background:new 0 0 56 56;" xml:space="preserve">
<g>
	<path d="M28,40c-4.411,0-8,3.589-8,8s3.589,8,8,8s8-3.589,8-8S32.411,40,28,40z"/>
	<path d="M28,20c-4.411,0-8,3.589-8,8s3.589,8,8,8s8-3.589,8-8S32.411,20,28,20z"	/>
	<path d="M28,0c-4.411,0-8,3.589-8,8s3.589,8,8,8s8-3.589,8-8S32.411,0,28,0z"/>
</g>
</svg>
