<svg width="456.793" height="456.793" xmlns="http://www.w3.org/2000/svg" xml:space="preserve" version="1.1">

 <g>
  <title>Layer 1</title>
  <g id="svg_1">
   <g id="svg_2">
    <path fill="#b6c4df" id="svg_3" d="m448.947,218.474c-0.922,-1.168 -23.055,-28.933 -61,-56.81c-50.707,-37.253 -105.879,-56.944 -159.551,-56.944c-53.673,0 -108.845,19.691 -159.551,56.944c-37.944,27.876 -60.077,55.642 -61,56.81l-7.845,9.922l7.845,9.923c0.923,1.168 23.056,28.934 61,56.811c50.707,37.254 105.878,56.943 159.551,56.943c53.672,0 108.844,-19.689 159.551,-56.943c37.945,-27.877 60.078,-55.643 61,-56.811l7.846,-9.923l-7.846,-9.922zm-220.551,93.622c-46.152,0 -83.699,-37.548 -83.699,-83.699c0,-46.152 37.547,-83.699 83.699,-83.699s83.7,37.547 83.7,83.699c0,46.151 -37.548,83.699 -83.7,83.699zm-186.711,-83.7c9.197,-9.872 25.32,-25.764 46.833,-41.478c13.911,-10.16 31.442,-21.181 51.772,-30.305c-15.989,19.589 -25.593,44.584 -25.593,71.782s9.604,52.193 25.593,71.782c-20.329,-9.124 -37.861,-20.146 -51.771,-30.306c-21.517,-15.712 -37.641,-31.606 -46.834,-41.475zm326.588,41.478c-13.912,10.16 -31.443,21.182 -51.771,30.306c15.988,-19.589 25.594,-44.584 25.594,-71.782s-9.605,-52.193 -25.594,-71.782c20.33,9.124 37.861,20.146 51.771,30.305c21.516,15.715 37.639,31.609 46.832,41.477c-9.195,9.87 -25.32,25.763 -46.832,41.476z"/>
    <path fill="#b6c4df"  id="svg_4" d="m223.646,168.834c-27.513,4 -50.791,31.432 -41.752,59.562c8.23,-20.318 25.457,-33.991 45.795,-32.917c16.336,0.863 33.983,18.237 33.59,32.228c1.488,22.407 -12.725,39.047 -32.884,47.191c46.671,15.21 73.197,-44.368 51.818,-79.352c-11.981,-19.604 -34.244,-29.316 -56.567,-26.712z"/>
   </g>
  </g>
  <g id="svg_5"/>
  <g id="svg_6"/>
  <g id="svg_7"/>
  <g id="svg_8"/>
  <g id="svg_9"/>
  <g id="svg_10"/>
  <g id="svg_11"/>
  <g id="svg_12"/>
  <g id="svg_13"/>
  <g id="svg_14"/>
  <g id="svg_15"/>
  <g id="svg_16"/>
  <g id="svg_17"/>
  <g id="svg_18"/>
  <g id="svg_19"/>
  <line stroke="000" stroke-width="25" stroke-linecap="undefined" stroke-linejoin="undefined" id="svg_20" y2="48.6035" x2="355.39648" y1="409.60348" x1="92.39648" fill="none"/>
  <line stroke="#b6c4df" stroke-width="25" stroke-linecap="undefined" stroke-linejoin="undefined" id="svg_22" y2="48.6035" x2="355.39648" y1="409.60348" x1="92.39648" fill="none"/>
  <line transform="rotate(-0.563241 214.396 220.603)" stroke="#ffffff" stroke-linecap="undefined" stroke-linejoin="undefined" id="svg_23" y2="403.50516" x2="78.35389" y1="37.70186" x1="350.43904" stroke-width="16" fill="none"/>
  <line stroke="#ffffff" stroke-linecap="undefined" stroke-linejoin="undefined" id="svg_25" y2="57.60348" x2="370.39649" y1="421.6035" x1="104.39649" stroke-width="16" fill="none"/>
 </g>
</svg>