<?xml version="1.0" encoding="iso-8859-1"?>
<!-- Generator: Adobe Illustrator 19.0.0, SVG Export Plug-In . SVG Version: 6.00 Build 0)  -->
<svg version="1.1" id="Layer_1" xmlns="http://www.w3.org/2000/svg" xmlns:xlink="http://www.w3.org/1999/xlink" x="0px" y="0px"
	 viewBox="0 0 512 512" style="enable-background:new 0 0 512 512;" xml:space="preserve">
<path style="fill:#F490C0;" d="M363.592,4.951l-9.498,9.498c-36.081,36.081-42.842,93.993-12.146,134.754
	c38.016,50.478,110.106,54.198,153.144,11.161l11.955-11.955c6.603-6.603,6.603-17.307,0-23.909L387.502,4.951
	C380.9-1.65,370.195-1.65,363.592,4.951z"/>
<path style="fill:#F072AE;" d="M495.094,160.362l11.954-11.955c6.603-6.603,6.603-17.307,0-23.909l-59.773-59.773l-95.635,95.635
	C391.254,199.974,455.48,199.976,495.094,160.362z"/>
<path style="fill:#F490C0;" d="M4.952,387.502l119.547,119.547c6.603,6.603,17.307,6.603,23.909,0l11.955-11.955
	c43.038-43.038,39.319-115.129-11.161-153.144c-40.759-30.697-98.673-23.935-134.754,12.146l-9.498,9.498
	C-1.65,370.194-1.65,380.899,4.952,387.502z"/>
<path style="fill:#F072AE;" d="M124.498,507.048c6.603,6.603,17.307,6.603,23.909,0l11.955-11.955
	c39.614-39.614,39.612-103.84-0.002-143.454l-95.635,95.635L124.498,507.048z"/>
<path style="fill:#ED539D;" d="M428.435,189.952l-0.011-0.011c-1.555-1.961-3.246-3.855-5.061-5.669l-95.634-95.634
	c-1.623-1.623-3.314-3.156-5.061-4.576c-26.554-21.73-65.777-20.209-90.562,4.565L89.134,231.598
	c-0.169,0.169-0.338,0.338-0.496,0.507c-24.447,24.943-25.675,64.121-3.719,90.506c1.319,1.589,2.728,3.133,4.215,4.621
	l95.634,95.51c1.668,1.668,3.415,3.449,5.207,4.576c0,0,0,0,0.011,0c26.385,21.415,65.203,20.175,89.954-4.125
	c0.158-0.147,0.304-0.231,0.462-0.389l142.972-142.941C447.956,255.269,449.647,216.495,428.435,189.952z"/>
<path style="fill:#EA348B;" d="M423.374,279.894L280.402,422.867c-0.158,0.158-0.304,0.18-0.462,0.327
	c-24.751,24.3-63.568,25.54-89.954,4.125c-0.011,0-0.011,0-0.011,0c-1.792-1.127-3.753-2.908-5.421-4.576l-48.026-47.688v-0.011
	l214.904-214.69l24.013-23.894l47.865,47.811c1.815,1.815,3.532,3.708,5.088,5.669l0.025,0.011
	C449.633,216.495,447.956,255.301,423.374,279.894z"/>
<g>
	<polygon style="fill:#FFCCE4;" points="423.374,279.894 399.424,303.845 303.812,208.188 208.211,112.52 232.106,88.626 
		327.74,184.26 	"/>
	<path style="fill:#FFCCE4;" d="M303.846,399.423l-23.444,23.444c-0.158,0.158-0.304,0.304-0.462,0.451l-95.657-95.6l-95.646-95.612
		c0.158-0.169,0.327-0.338,0.496-0.507l23.387-23.387l95.668,95.6L303.846,399.423z"/>
	<polygon style="fill:#FFCCE4;" points="363.018,340.25 339.124,364.145 243.467,268.533 147.799,172.933 171.693,149.038 
		267.362,244.639 	"/>
</g>
<g>
	<polygon style="fill:#F7AFD1;" points="303.812,208.188 303.812,208.188 399.424,303.845 423.374,279.894 327.74,184.26 	"/>
	<path style="fill:#F7AFD1;" d="M208.189,303.811L208.189,303.811l-23.906,23.906l0,0l95.657,95.6
		c0.158-0.147,0.304-0.293,0.462-0.451l23.444-23.444L208.189,303.811z"/>
	<polygon style="fill:#F7AFD1;" points="267.362,244.639 267.362,244.639 243.467,268.533 243.467,268.533 339.124,364.145 
		363.018,340.25 	"/>
</g>
<g>
</g>
<g>
</g>
<g>
</g>
<g>
</g>
<g>
</g>
<g>
</g>
<g>
</g>
<g>
</g>
<g>
</g>
<g>
</g>
<g>
</g>
<g>
</g>
<g>
</g>
<g>
</g>
<g>
</g>
</svg>
